<svg width="16" height="21" viewBox="0 0 16 21" fill="none" xmlns="http://www.w3.org/2000/svg">
<g clip-path="url(#clip0_105_31)">
<path fill-rule="evenodd" clip-rule="evenodd" d="M3.22705 9.38062C2.72245 4.92188 5.36512 1.78589 10.321 0C7.28644 3.8811 12.9082 8.08521 13.2186 12.115C13.9452 10.8931 14.3579 9.2627 14.4394 7.08203C18.1554 12.8276 15.074 22.2185 6.89628 20.8684C6.14544 20.7454 5.42235 20.5112 4.76341 20.1626C1.78086 18.5938 0 15.1741 0 11.9082C0 9.82666 0.903436 7.969 2.07218 6.49243C2.22824 7.93823 2.56118 9.0166 3.22705 9.38062Z" fill="#EC6F59"/>
<path fill-rule="evenodd" clip-rule="evenodd" d="M5.87324 15.8218C5.03049 13.677 5.14667 10.2129 7.5067 8.9978C7.52404 12.9797 11.5037 13.4873 10.7667 17.7375C11.4464 16.9788 11.7898 15.7654 11.8505 14.8066C12.929 17.2402 12.0828 19.1868 10.5447 20.178C5.86803 23.1926 1.84159 17.0813 4.51895 13.7317C4.60045 14.4802 5.5299 15.6355 5.87324 15.8218Z" fill="#FAD15C"/>
</g>
<defs>
<clipPath id="clip0_105_31">
<rect width="16" height="21" fill="white"/>
</clipPath>
</defs>
</svg>
