<svg width="24" height="24" viewBox="0 0 24 24" fill="none" xmlns="http://www.w3.org/2000/svg">
<g clip-path="url(#clip0_114_141)">
<path d="M24 12C24 5.37258 18.6274 0 12 0C5.37258 0 0 5.37258 0 12C0 18.6274 5.37258 24 12 24C18.6274 24 24 18.6274 24 12Z" fill="#32C671"/>
<path d="M19.7319 8.77594L18.2827 7.32668C18.0839 7.12773 17.8421 7.02832 17.5581 7.02832C17.2738 7.02832 17.0322 7.12773 16.8333 7.32668L9.84203 14.3284L6.70898 11.184C6.51003 10.985 6.26844 10.8856 5.98434 10.8856C5.70012 10.8856 5.45853 10.985 5.25958 11.184L3.81032 12.6332C3.61137 12.8322 3.51196 13.0738 3.51196 13.358C3.51196 13.6421 3.61137 13.8838 3.81032 14.0826L7.668 17.9403L9.11727 19.3896C9.31608 19.5885 9.55767 19.6879 9.8419 19.6879C10.126 19.6879 10.3677 19.5884 10.5665 19.3896L12.0158 17.9403L19.7312 10.2249C19.93 10.026 20.0295 9.78441 20.0295 9.50018C20.0295 9.21608 19.93 8.97436 19.7312 8.77555" fill="white"/>
</g>
<defs>
<clipPath id="clip0_114_141">
<rect width="24" height="24" fill="white"/>
</clipPath>
</defs>
</svg>
