<svg width="246" height="131" viewBox="0 0 246 131" fill="none" xmlns="http://www.w3.org/2000/svg">
<path d="M9.112 83.224C9.112 80.536 9.944 78.296 11.608 76.504C13.272 74.712 15.544 73.816 18.424 73.816C21.304 73.816 23.576 74.712 25.24 76.504C26.904 78.296 27.736 80.536 27.736 83.224C27.736 85.912 26.904 88.152 25.24 89.944C23.576 91.736 21.304 92.632 18.424 92.632C15.544 92.632 13.272 91.736 11.608 89.944C9.944 88.152 9.112 85.912 9.112 83.224Z" fill="#1B7BE7"/>
<path d="M52.723 75.576C50.8457 74.936 49.139 74.296 47.603 73.656C46.067 72.9733 44.7443 72.1627 43.635 71.224C42.5257 70.2853 41.651 69.176 41.011 67.896C40.4137 66.5733 40.115 64.9733 40.115 63.096C40.115 59.4693 41.5017 56.568 44.275 54.392C47.091 52.216 51.0163 51.128 56.051 51.128C57.8857 51.128 59.5923 51.256 61.171 51.512C62.7497 51.768 64.0937 52.1733 65.203 52.728C66.355 53.24 67.251 53.9227 67.891 54.776C68.531 55.5867 68.851 56.5467 68.851 57.656C68.851 58.7653 68.595 59.7253 68.083 60.536C67.571 61.304 66.9523 61.9653 66.227 62.52C65.2883 61.9227 64.0297 61.4107 62.451 60.984C60.8723 60.5147 59.1443 60.28 57.267 60.28C55.347 60.28 53.939 60.5573 53.043 61.112C52.147 61.624 51.699 62.2853 51.699 63.096C51.699 63.736 51.9763 64.2693 52.531 64.696C53.0857 65.08 53.9177 65.4427 55.027 65.784L58.419 66.872C62.4297 68.152 65.5017 69.7947 67.635 71.8C69.811 73.7627 70.899 76.4507 70.899 79.864C70.899 83.4907 69.4697 86.4347 66.611 88.696C63.7523 90.9147 59.5497 92.024 54.003 92.024C52.0403 92.024 50.2057 91.8533 48.499 91.512C46.835 91.2133 45.363 90.7653 44.083 90.168C42.8457 89.528 41.8643 88.76 41.139 87.864C40.4563 86.9253 40.115 85.8587 40.115 84.664C40.115 83.4267 40.4777 82.3813 41.203 81.528C41.9283 80.632 42.7177 79.9493 43.571 79.48C44.7657 80.4187 46.2163 81.2293 47.923 81.912C49.6723 82.5947 51.571 82.936 53.619 82.936C55.7097 82.936 57.1817 82.616 58.035 81.976C58.8883 81.336 59.315 80.5893 59.315 79.736C59.315 78.8827 58.9737 78.2427 58.291 77.816C57.6083 77.3467 56.6483 76.8987 55.411 76.472L52.723 75.576ZM116.773 90.744C116.304 90.872 115.557 91 114.533 91.128C113.552 91.256 112.57 91.32 111.589 91.32C110.608 91.32 109.733 91.2347 108.965 91.064C108.24 90.936 107.621 90.68 107.109 90.296C106.597 89.912 106.213 89.3787 105.957 88.696C105.701 88.0133 105.573 87.1173 105.573 86.008V76.024H93.285V90.744C92.8157 90.872 92.069 91 91.045 91.128C90.0637 91.256 89.0823 91.32 88.101 91.32C87.1197 91.32 86.245 91.2347 85.477 91.064C84.7517 90.936 84.133 90.68 83.621 90.296C83.109 89.912 82.725 89.3787 82.469 88.696C82.213 88.0133 82.085 87.1173 82.085 86.008V52.216C82.5543 52.1307 83.301 52.024 84.325 51.896C85.349 51.7253 86.3303 51.64 87.269 51.64C88.2503 51.64 89.1037 51.7253 89.829 51.896C90.597 52.024 91.237 52.28 91.749 52.664C92.261 53.048 92.645 53.5813 92.901 54.264C93.157 54.9467 93.285 55.8427 93.285 56.952V67.192H105.573V52.216C106.042 52.1307 106.789 52.024 107.813 51.896C108.837 51.7253 109.818 51.64 110.757 51.64C111.738 51.64 112.592 51.7253 113.317 51.896C114.085 52.024 114.725 52.28 115.237 52.664C115.749 53.048 116.133 53.5813 116.389 54.264C116.645 54.9467 116.773 55.8427 116.773 56.952V90.744ZM141.405 90.744C140.936 90.872 140.189 91 139.165 91.128C138.184 91.256 137.202 91.32 136.221 91.32C135.24 91.32 134.365 91.2347 133.597 91.064C132.872 90.936 132.253 90.68 131.741 90.296C131.229 89.912 130.845 89.3787 130.589 88.696C130.333 88.0133 130.205 87.1173 130.205 86.008V52.216C130.674 52.1307 131.421 52.024 132.445 51.896C133.469 51.7253 134.45 51.64 135.389 51.64C136.37 51.64 137.224 51.7253 137.949 51.896C138.717 52.024 139.357 52.28 139.869 52.664C140.381 53.048 140.765 53.5813 141.021 54.264C141.277 54.9467 141.405 55.8427 141.405 56.952V90.744ZM182.089 52.216C182.388 52.6853 182.644 53.3253 182.857 54.136C183.113 54.904 183.241 55.7147 183.241 56.568C183.241 58.232 182.878 59.4267 182.153 60.152C181.47 60.8347 180.532 61.176 179.337 61.176H165.897V68.408H179.913C180.254 68.8773 180.532 69.496 180.745 70.264C181.001 71.032 181.129 71.8427 181.129 72.696C181.129 74.3173 180.766 75.4907 180.041 76.216C179.358 76.8987 178.42 77.24 177.225 77.24H166.025V90.744C165.556 90.872 164.809 91 163.785 91.128C162.804 91.256 161.822 91.32 160.841 91.32C159.86 91.32 158.985 91.2347 158.217 91.064C157.492 90.936 156.873 90.68 156.361 90.296C155.849 89.912 155.465 89.3787 155.209 88.696C154.953 88.0133 154.825 87.1173 154.825 86.008V58.168C154.825 56.3333 155.358 54.8827 156.425 53.816C157.492 52.7493 158.942 52.216 160.777 52.216H182.089ZM193.028 61.176C192.729 60.7067 192.452 60.0667 192.196 59.256C191.94 58.4453 191.812 57.592 191.812 56.696C191.812 55.032 192.175 53.8373 192.9 53.112C193.668 52.3867 194.649 52.024 195.844 52.024H223.748C224.047 52.4933 224.324 53.1333 224.58 53.944C224.836 54.7547 224.964 55.608 224.964 56.504C224.964 58.168 224.58 59.3627 223.812 60.088C223.087 60.8133 222.127 61.176 220.932 61.176H213.828V90.744C213.359 90.872 212.612 91 211.588 91.128C210.607 91.256 209.625 91.32 208.644 91.32C207.663 91.32 206.788 91.2347 206.02 91.064C205.295 90.936 204.676 90.68 204.164 90.296C203.652 89.912 203.268 89.3787 203.012 88.696C202.756 88.0133 202.628 87.1173 202.628 86.008V61.176H193.028Z" fill="#91E220"/>
<path d="M-2.11326e-07 72.5L4.18604 77.3346L17.75 61.6692L31.314 77.3346L35.5 72.5L17.75 52L-2.11326e-07 72.5Z" fill="#1B7BE7"/>
</svg>
